<svg xmlns="http://www.w3.org/2000/svg" width="860" height="460" viewBox="-20 -20 860 460">
  <style>@import url("https://fonts.googleapis.com/css2?family=Inter:wght@400;500;600;700&amp;family=JetBrains+Mono:wght@400;500&amp;display=swap");</style>
  <rect x="-20" y="-20" width="860" height="460" fill="#1c2127"/>
  <defs><pattern id="grid" width="16" height="16" patternUnits="userSpaceOnUse"><circle cx="1" cy="1" r="1" fill="rgba(180, 188, 200, 0.22)"/></pattern></defs><g opacity="1"><rect x="-20" y="-20" width="860" height="460" fill="url(#grid)"/></g>
  <rect x="280" y="20" width="380" height="380" rx="8" fill="#8b93a00f" stroke="#8b93a0" stroke-opacity="0.55" stroke-width="1.5" stroke-dasharray="8 4"/>
  <text x="292" y="39" fill="#8b93a0" font-size="11" font-weight="600" letter-spacing="0.7" font-family="&#39;Inter&#39;, system-ui, sans-serif">Production</text>
  <path d="M 200 97.5 C 250 97.5, 250 184, 300 184" fill="none" stroke="#54b6e6" stroke-width="2"/>
  <path d="M 0 0 L -8 -3.0769230769230766 L -8 3.0769230769230766 Z" fill="#54b6e6" fill-opacity="0.88" transform="translate(300 184) rotate(0)"/>
  <text x="250" y="132.75" text-anchor="middle" fill="#54b6e6" font-size="10" font-family="&#39;JetBrains Mono&#39;, ui-monospace, monospace">TLS</text>
  <path d="M 200 297.5 C 250 297.5, 250 184, 300 184" fill="none" stroke="#54b6e6" stroke-width="2"/>
  <path d="M 0 0 L -8 -3.0769230769230766 L -8 3.0769230769230766 Z" fill="#54b6e6" fill-opacity="0.88" transform="translate(300 184) rotate(0)"/>
  <text x="258" y="244.75" text-anchor="start" fill="#54b6e6" font-size="10" font-family="&#39;JetBrains Mono&#39;, ui-monospace, monospace">TLS</text>
  <path d="M 410 184 C 445 184, 445 77.5, 480 77.5" fill="none" stroke="#2dd4bf" stroke-width="2"/>
  <path d="M 0 0 L -8 -3.0769230769230766 L -8 3.0769230769230766 Z" fill="#2dd4bf" fill-opacity="0.88" transform="translate(480 77.5) rotate(0)"/>
  <path d="M 410 184 C 445 184, 445 184, 480 184" fill="none" stroke="#2dd4bf" stroke-width="2"/>
  <path d="M 0 0 L -8 -3.0769230769230766 L -8 3.0769230769230766 Z" fill="#2dd4bf" fill-opacity="0.88" transform="translate(480 184) rotate(0)"/>
  <path d="M 560 115 C 560 197.5, 560 197.5, 560 280" fill="none" stroke="#4f8cff" stroke-width="2" stroke-dasharray="6 3"/>
  <path d="M 0 0 L -8 -3.0769230769230766 L -8 3.0769230769230766 Z" fill="#4f8cff" fill-opacity="0.88" transform="translate(560 280) rotate(90)"/>
  <text x="568" y="201.5" text-anchor="start" fill="#4f8cff" font-size="10" font-family="&#39;JetBrains Mono&#39;, ui-monospace, monospace">read/write</text>
  <path d="M 640 77.5 C 650 77.5, 650 184, 660 184" fill="none" stroke="#7c8cff" stroke-width="1.5" stroke-dasharray="6 3"/>
  <path d="M 0 0 L -8 -3.0769230769230766 L -8 3.0769230769230766 Z" fill="#7c8cff" fill-opacity="0.88" transform="translate(660 184) rotate(0)"/>
  <g opacity="1">
    <rect x="40" y="60" width="160" height="75" rx="3" fill="#54b6e61f" stroke="#54b6e6" stroke-width="1" stroke-opacity="0.55"/>
    <defs><clipPath id="clip-web"><rect width="160" height="75" rx="3"/></clipPath></defs>
    <g transform="translate(40 60)" clip-path="url(#clip-web)"><line x1="16" y1="54.7" x2="144" y2="54.7" stroke="#54b6e6" stroke-width="1" opacity="0.2"/></g>
    <g transform="translate(40 60)" clip-path="url(#clip-web)">
    <text x="80" y="34.3" text-anchor="middle" fill="#f6f7f9" font-size="11" font-weight="500" font-family="&#39;Inter&#39;, system-ui, sans-serif" letter-spacing="-0.165">Web</text>
    <text x="80" y="47.7" text-anchor="middle" fill="#abb3bf" opacity="0.72" font-size="9" font-family="&#39;Inter&#39;, system-ui, sans-serif">Next.js</text>
    </g>
  </g>
  <g opacity="1">
    <path d="M 0 0 L 151 0 L 160 9 L 160 75 L 0 75 Z" transform="translate(40 260)" fill="#e0726e1f" stroke="#e0726e" stroke-width="1" stroke-opacity="0.55"/>
    <defs><clipPath id="clip-mobile"><path d="M 0 0 L 151 0 L 160 9 L 160 75 L 0 75 Z"/></clipPath></defs>
    <g transform="translate(40 260)" clip-path="url(#clip-mobile)"><line x1="16" y1="54.7" x2="144" y2="54.7" stroke="#e0726e" stroke-width="1" opacity="0.2"/></g>
    <g transform="translate(40 260)" clip-path="url(#clip-mobile)">
    <text x="80" y="34.3" text-anchor="middle" fill="#f6f7f9" font-size="11" font-weight="500" font-family="&#39;Inter&#39;, system-ui, sans-serif" letter-spacing="-0.165">Mobile</text>
    <text x="80" y="47.7" text-anchor="middle" fill="#abb3bf" opacity="0.72" font-size="9" font-family="&#39;Inter&#39;, system-ui, sans-serif">Expo</text>
    </g>
  </g>
  <g opacity="1">
    <rect x="300" y="160" width="110" height="48" rx="3" fill="#8b93a01f" stroke="#8b93a0" stroke-width="1" stroke-opacity="0.55"/>
    <defs><clipPath id="clip-lb"><rect width="110" height="48" rx="3"/></clipPath></defs>
    <g transform="translate(300 160)" clip-path="url(#clip-lb)"><line x1="12" y1="33.7" x2="98" y2="33.7" stroke="#8b93a0" stroke-width="1" opacity="0.2"/></g>
    <g transform="translate(300 160)" clip-path="url(#clip-lb)">
    <text x="55" y="26.7" text-anchor="middle" fill="#f6f7f9" font-size="9" font-weight="500" font-family="&#39;Inter&#39;, system-ui, sans-serif" letter-spacing="-0.165">LB</text>
    </g>
  </g>
  <g opacity="1">
    <rect x="480" y="40" width="160" height="75" rx="3" fill="#2dd4bf1f" stroke="#2dd4bf" stroke-width="1" stroke-opacity="0.55"/>
    <defs><clipPath id="clip-workers"><rect width="160" height="75" rx="3"/></clipPath></defs>
    <g transform="translate(480 40)" clip-path="url(#clip-workers)"><line x1="16" y1="54.7" x2="144" y2="54.7" stroke="#2dd4bf" stroke-width="1" opacity="0.2"/></g>
    <g transform="translate(480 40)" clip-path="url(#clip-workers)">
    <text x="80" y="34.3" text-anchor="middle" fill="#f6f7f9" font-size="11" font-weight="500" font-family="&#39;Inter&#39;, system-ui, sans-serif" letter-spacing="-0.165">Workers</text>
    <text x="80" y="47.7" text-anchor="middle" fill="#abb3bf" opacity="0.72" font-size="9" font-family="&#39;Inter&#39;, system-ui, sans-serif">x4</text>
    </g>
  </g>
  <g opacity="1">
    <rect x="480" y="160" width="110" height="48" rx="3" fill="#e0884a1f" stroke="#e0884a" stroke-width="1" stroke-opacity="0.55"/>
    <defs><clipPath id="clip-queue"><rect width="110" height="48" rx="3"/></clipPath></defs>
    <g transform="translate(480 160)" clip-path="url(#clip-queue)"><line x1="12" y1="33.7" x2="98" y2="33.7" stroke="#e0884a" stroke-width="1" opacity="0.2"/></g>
    <g transform="translate(480 160)" clip-path="url(#clip-queue)">
    <text x="55" y="26.7" text-anchor="middle" fill="#f6f7f9" font-size="9" font-weight="500" font-family="&#39;Inter&#39;, system-ui, sans-serif" letter-spacing="-0.165">Queue</text>
    </g>
  </g>
  <g opacity="1">
    <rect x="480" y="280" width="160" height="75" rx="3" fill="#4f8cff1f" stroke="#4f8cff" stroke-width="1" stroke-opacity="0.55"/>
    <defs><clipPath id="clip-store"><rect width="160" height="75" rx="3"/></clipPath></defs>
    <g transform="translate(480 280)" clip-path="url(#clip-store)"><line x1="16" y1="54.7" x2="144" y2="54.7" stroke="#4f8cff" stroke-width="1" opacity="0.2"/></g>
    <g transform="translate(480 280)" clip-path="url(#clip-store)">
    <text x="80" y="34.3" text-anchor="middle" fill="#f6f7f9" font-size="11" font-weight="500" font-family="&#39;Inter&#39;, system-ui, sans-serif" letter-spacing="-0.165">Object Store</text>
    <text x="80" y="47.7" text-anchor="middle" fill="#abb3bf" opacity="0.72" font-size="9" font-family="&#39;Inter&#39;, system-ui, sans-serif">S3</text>
    </g>
  </g>
  <g opacity="1">
    <rect x="660" y="160" width="110" height="48" rx="3" fill="#7c8cff1f" stroke="#7c8cff" stroke-width="1" stroke-opacity="0.55"/>
    <defs><clipPath id="clip-obs"><rect width="110" height="48" rx="3"/></clipPath></defs>
    <g transform="translate(660 160)" clip-path="url(#clip-obs)"><line x1="12" y1="33.7" x2="98" y2="33.7" stroke="#7c8cff" stroke-width="1" opacity="0.2"/></g>
    <g transform="translate(660 160)" clip-path="url(#clip-obs)">
    <text x="55" y="26.7" text-anchor="middle" fill="#f6f7f9" font-size="9" font-weight="500" font-family="&#39;Inter&#39;, system-ui, sans-serif" letter-spacing="-0.165">Telemetry</text>
    </g>
  </g>
  <rect x="-19.5" y="-19.5" width="859" height="459" stroke="#8b93a0" stroke-width="1" fill="none" />
</svg>